# 3ds Max Wavefront OBJ Exporter v0.97b - (c)2007 guruware
# File Created: 29.11.2012 01:08:33

mtllib base.mtl

#
# object base
#

v  0.0000 -58.5749 -0.0000
v  55.9076 -58.5749 -11.8835
v  57.1566 -58.5749 -0.0000
v  52.2152 -58.5749 -23.2477
v  46.2407 -58.5749 -33.5958
v  38.2452 -58.5749 -42.4757
v  28.5783 -58.5749 -49.4991
v  17.6624 -58.5749 -54.3592
v  5.9745 -58.5749 -56.8435
v  -5.9745 -58.5749 -56.8435
v  -17.6624 -58.5749 -54.3592
v  -28.5783 -58.5749 -49.4991
v  -38.2453 -58.5749 -42.4757
v  -46.2407 -58.5749 -33.5958
v  -52.2152 -58.5749 -23.2477
v  -55.9076 -58.5749 -11.8835
v  -57.1566 -58.5749 0.0000
v  -55.9076 -58.5749 11.8835
v  -52.2152 -58.5749 23.2477
v  -46.2407 -58.5749 33.5958
v  -38.2452 -58.5749 42.4757
v  -28.5783 -58.5749 49.4991
v  -17.6624 -58.5749 54.3592
v  -5.9745 -58.5749 56.8435
v  5.9745 -58.5749 56.8435
v  17.6623 -58.5749 54.3592
v  28.5783 -58.5749 49.4991
v  38.2452 -58.5749 42.4757
v  46.2406 -58.5749 33.5959
v  52.2151 -58.5749 23.2478
v  55.9076 -58.5749 11.8836
v  55.9076 -53.3937 -11.8835
v  57.1566 -53.3937 -0.0000
v  52.2152 -53.3937 -23.2477
v  46.2407 -53.3937 -33.5958
v  38.2452 -53.3937 -42.4757
v  28.5783 -53.3937 -49.4991
v  17.6624 -53.3937 -54.3592
v  5.9745 -53.3937 -56.8435
v  -5.9745 -53.3937 -56.8435
v  -17.6624 -53.3937 -54.3592
v  -28.5783 -53.3937 -49.4991
v  -38.2453 -53.3937 -42.4757
v  -46.2407 -53.3937 -33.5958
v  -52.2152 -53.3937 -23.2477
v  -55.9076 -53.3937 -11.8835
v  -57.1566 -53.3937 0.0000
v  -55.9076 -53.3937 11.8835
v  -52.2152 -53.3937 23.2477
v  -46.2407 -53.3937 33.5958
v  -38.2452 -53.3937 42.4757
v  -28.5783 -53.3937 49.4991
v  -17.6624 -53.3937 54.3592
v  -5.9745 -53.3937 56.8435
v  5.9745 -53.3937 56.8435
v  17.6623 -53.3937 54.3592
v  28.5783 -53.3937 49.4991
v  38.2452 -53.3937 42.4757
v  46.2406 -53.3937 33.5959
v  52.2151 -53.3937 23.2478
v  55.9076 -53.3937 11.8836
v  55.9076 -48.2124 -11.8835
v  57.1566 -48.2124 -0.0000
v  52.2152 -48.2124 -23.2477
v  46.2407 -48.2124 -33.5958
v  38.2452 -48.2124 -42.4757
v  28.5783 -48.2124 -49.4991
v  17.6624 -48.2124 -54.3592
v  5.9745 -48.2124 -56.8435
v  -5.9745 -48.2124 -56.8435
v  -17.6624 -48.2124 -54.3592
v  -28.5783 -48.2124 -49.4991
v  -38.2453 -48.2124 -42.4757
v  -46.2407 -48.2124 -33.5958
v  -52.2152 -48.2124 -23.2477
v  -55.9076 -48.2124 -11.8835
v  -57.1566 -48.2124 0.0000
v  -55.9076 -48.2124 11.8835
v  -52.2152 -48.2124 23.2477
v  -46.2407 -48.2124 33.5958
v  -38.2452 -48.2124 42.4757
v  -28.5783 -48.2124 49.4991
v  -17.6624 -48.2124 54.3592
v  -5.9745 -48.2124 56.8435
v  5.9745 -48.2124 56.8435
v  17.6623 -48.2124 54.3592
v  28.5783 -48.2124 49.4991
v  38.2452 -48.2124 42.4757
v  46.2406 -48.2124 33.5959
v  52.2151 -48.2124 23.2478
v  55.9076 -48.2124 11.8836
v  55.9076 -43.0312 -11.8835
v  57.1566 -43.0312 -0.0000
v  52.2152 -43.0312 -23.2477
v  46.2407 -43.0312 -33.5958
v  38.2452 -43.0312 -42.4757
v  28.5783 -43.0312 -49.4991
v  17.6624 -43.0312 -54.3592
v  5.9745 -43.0312 -56.8435
v  -5.9745 -43.0312 -56.8435
v  -17.6624 -43.0312 -54.3592
v  -28.5783 -43.0312 -49.4991
v  -38.2453 -43.0312 -42.4757
v  -46.2407 -43.0312 -33.5958
v  -52.2152 -43.0312 -23.2477
v  -55.9076 -43.0312 -11.8835
v  -57.1566 -43.0312 0.0000
v  -55.9076 -43.0312 11.8835
v  -52.2152 -43.0312 23.2477
v  -46.2407 -43.0312 33.5958
v  -38.2452 -43.0312 42.4757
v  -28.5783 -43.0312 49.4991
v  -17.6624 -43.0312 54.3592
v  -5.9745 -43.0312 56.8435
v  5.9745 -43.0312 56.8435
v  17.6623 -43.0312 54.3592
v  28.5783 -43.0312 49.4991
v  38.2452 -43.0312 42.4757
v  46.2406 -43.0312 33.5959
v  52.2151 -43.0312 23.2478
v  55.9076 -43.0312 11.8836
v  55.9076 -37.8500 -11.8835
v  57.1566 -37.8500 -0.0000
v  52.2152 -37.8500 -23.2477
v  46.2407 -37.8500 -33.5958
v  38.2452 -37.8500 -42.4757
v  28.5783 -37.8500 -49.4991
v  17.6624 -37.8500 -54.3592
v  5.9745 -37.8500 -56.8435
v  -5.9745 -37.8500 -56.8435
v  -17.6624 -37.8500 -54.3592
v  -28.5783 -37.8500 -49.4991
v  -38.2453 -37.8500 -42.4757
v  -46.2407 -37.8500 -33.5958
v  -52.2152 -37.8500 -23.2477
v  -55.9076 -37.8500 -11.8835
v  -57.1566 -37.8500 0.0000
v  -55.9076 -37.8500 11.8835
v  -52.2152 -37.8500 23.2477
v  -46.2407 -37.8500 33.5958
v  -38.2452 -37.8500 42.4757
v  -28.5783 -37.8500 49.4991
v  -17.6624 -37.8500 54.3592
v  -5.9745 -37.8500 56.8435
v  5.9745 -37.8500 56.8435
v  17.6623 -37.8500 54.3592
v  28.5783 -37.8500 49.4991
v  38.2452 -37.8500 42.4757
v  46.2406 -37.8500 33.5959
v  52.2151 -37.8500 23.2478
v  55.9076 -37.8500 11.8836
v  0.0000 -37.8500 -0.0000
# 152 vertices

vn 0.0000 -1.0000 -0.0000
vn 1.0000 0.0000 0.0000
vn 0.9781 0.0000 -0.2079
vn 0.9135 0.0000 -0.4067
vn 0.8090 0.0000 -0.5878
vn 0.6691 0.0000 -0.7431
vn 0.5000 0.0000 -0.8660
vn 0.3090 0.0000 -0.9511
vn 0.1045 0.0000 -0.9945
vn -0.1045 0.0000 -0.9945
vn -0.3090 0.0000 -0.9511
vn -0.5000 0.0000 -0.8660
vn -0.6691 0.0000 -0.7431
vn -0.8090 0.0000 -0.5878
vn -0.9135 0.0000 -0.4067
vn -0.9781 0.0000 -0.2079
vn -1.0000 0.0000 0.0000
vn -1.0000 0.0000 -0.0000
vn -0.9781 0.0000 0.2079
vn -0.9135 0.0000 0.4067
vn -0.8090 0.0000 0.5878
vn -0.6691 0.0000 0.7431
vn -0.5000 0.0000 0.8660
vn -0.3090 0.0000 0.9511
vn -0.1045 0.0000 0.9945
vn 0.1045 0.0000 0.9945
vn 0.3090 0.0000 0.9511
vn 0.5000 0.0000 0.8660
vn 0.6691 0.0000 0.7431
vn 0.8090 0.0000 0.5878
vn 0.9135 0.0000 0.4067
vn 0.9781 0.0000 0.2079
vn 0.0000 1.0000 -0.0000
# 33 vertex normals

vt 0.5000 0.0000 0.0000
vt 0.7833 0.0000 1.0000
vt 0.7500 0.0000 1.0000
vt 0.8167 0.0000 1.0000
vt 0.8500 0.0000 1.0000
vt 0.8833 0.0000 1.0000
vt 0.9167 0.0000 1.0000
vt 0.9500 0.0000 1.0000
vt 0.9833 0.0000 1.0000
vt 0.0167 0.0000 1.0000
vt -0.0167 0.0000 1.0000
vt 0.0500 0.0000 1.0000
vt 0.0833 0.0000 1.0000
vt 0.1167 0.0000 1.0000
vt 0.1500 0.0000 1.0000
vt 0.1833 0.0000 1.0000
vt 0.2167 0.0000 1.0000
vt 0.2500 0.0000 1.0000
vt 0.2833 0.0000 1.0000
vt 0.3167 0.0000 1.0000
vt 0.3500 0.0000 1.0000
vt 0.3833 0.0000 1.0000
vt 0.4167 0.0000 1.0000
vt 0.4500 0.0000 1.0000
vt 0.4833 0.0000 1.0000
vt 0.5167 0.0000 1.0000
vt 0.5500 0.0000 1.0000
vt 0.5833 0.0000 1.0000
vt 0.6167 0.0000 1.0000
vt 0.6500 0.0000 1.0000
vt 0.6833 0.0000 1.0000
vt 0.7167 0.0000 1.0000
vt 0.7833 0.2500 1.0000
vt 0.7500 0.2500 1.0000
vt 0.8167 0.2500 1.0000
vt 0.8500 0.2500 1.0000
vt 0.8833 0.2500 1.0000
vt 0.9167 0.2500 1.0000
vt 0.9500 0.2500 1.0000
vt 0.9833 0.2500 1.0000
vt 0.0167 0.2500 1.0000
vt -0.0167 0.2500 1.0000
vt 0.0500 0.2500 1.0000
vt 0.0833 0.2500 1.0000
vt 0.1167 0.2500 1.0000
vt 0.1500 0.2500 1.0000
vt 0.1833 0.2500 1.0000
vt 0.2167 0.2500 1.0000
vt 0.2500 0.2500 1.0000
vt 0.2833 0.2500 1.0000
vt 0.3167 0.2500 1.0000
vt 0.3500 0.2500 1.0000
vt 0.3833 0.2500 1.0000
vt 0.4167 0.2500 1.0000
vt 0.4500 0.2500 1.0000
vt 0.4833 0.2500 1.0000
vt 0.5167 0.2500 1.0000
vt 0.5500 0.2500 1.0000
vt 0.5833 0.2500 1.0000
vt 0.6167 0.2500 1.0000
vt 0.6500 0.2500 1.0000
vt 0.6833 0.2500 1.0000
vt 0.7167 0.2500 1.0000
vt 0.7833 0.5000 1.0000
vt 0.7500 0.5000 1.0000
vt 0.8167 0.5000 1.0000
vt 0.8500 0.5000 1.0000
vt 0.8833 0.5000 1.0000
vt 0.9167 0.5000 1.0000
vt 0.9500 0.5000 1.0000
vt 0.9833 0.5000 1.0000
vt 0.0167 0.5000 1.0000
vt -0.0167 0.5000 1.0000
vt 0.0500 0.5000 1.0000
vt 0.0833 0.5000 1.0000
vt 0.1167 0.5000 1.0000
vt 0.1500 0.5000 1.0000
vt 0.1833 0.5000 1.0000
vt 0.2167 0.5000 1.0000
vt 0.2500 0.5000 1.0000
vt 0.2833 0.5000 1.0000
vt 0.3167 0.5000 1.0000
vt 0.3500 0.5000 1.0000
vt 0.3833 0.5000 1.0000
vt 0.4167 0.5000 1.0000
vt 0.4500 0.5000 1.0000
vt 0.4833 0.5000 1.0000
vt 0.5167 0.5000 1.0000
vt 0.5500 0.5000 1.0000
vt 0.5833 0.5000 1.0000
vt 0.6167 0.5000 1.0000
vt 0.6500 0.5000 1.0000
vt 0.6833 0.5000 1.0000
vt 0.7167 0.5000 1.0000
vt 0.7833 0.7500 1.0000
vt 0.7500 0.7500 1.0000
vt 0.8167 0.7500 1.0000
vt 0.8500 0.7500 1.0000
vt 0.8833 0.7500 1.0000
vt 0.9167 0.7500 1.0000
vt 0.9500 0.7500 1.0000
vt 0.9833 0.7500 1.0000
vt 0.0167 0.7500 1.0000
vt -0.0167 0.7500 1.0000
vt 0.0500 0.7500 1.0000
vt 0.0833 0.7500 1.0000
vt 0.1167 0.7500 1.0000
vt 0.1500 0.7500 1.0000
vt 0.1833 0.7500 1.0000
vt 0.2167 0.7500 1.0000
vt 0.2500 0.7500 1.0000
vt 0.2833 0.7500 1.0000
vt 0.3167 0.7500 1.0000
vt 0.3500 0.7500 1.0000
vt 0.3833 0.7500 1.0000
vt 0.4167 0.7500 1.0000
vt 0.4500 0.7500 1.0000
vt 0.4833 0.7500 1.0000
vt 0.5167 0.7500 1.0000
vt 0.5500 0.7500 1.0000
vt 0.5833 0.7500 1.0000
vt 0.6167 0.7500 1.0000
vt 0.6500 0.7500 1.0000
vt 0.6833 0.7500 1.0000
vt 0.7167 0.7500 1.0000
vt 0.7833 1.0000 1.0000
vt 0.7500 1.0000 1.0000
vt 0.8167 1.0000 1.0000
vt 0.8500 1.0000 1.0000
vt 0.8833 1.0000 1.0000
vt 0.9167 1.0000 1.0000
vt 0.9500 1.0000 1.0000
vt 0.9833 1.0000 1.0000
vt 0.0167 1.0000 1.0000
vt -0.0167 1.0000 1.0000
vt 0.0500 1.0000 1.0000
vt 0.0833 1.0000 1.0000
vt 0.1167 1.0000 1.0000
vt 0.1500 1.0000 1.0000
vt 0.1833 1.0000 1.0000
vt 0.2167 1.0000 1.0000
vt 0.2500 1.0000 1.0000
vt 0.2833 1.0000 1.0000
vt 0.3167 1.0000 1.0000
vt 0.3500 1.0000 1.0000
vt 0.3833 1.0000 1.0000
vt 0.4167 1.0000 1.0000
vt 0.4500 1.0000 1.0000
vt 0.4833 1.0000 1.0000
vt 0.5167 1.0000 1.0000
vt 0.5500 1.0000 1.0000
vt 0.5833 1.0000 1.0000
vt 0.6167 1.0000 1.0000
vt 0.6500 1.0000 1.0000
vt 0.6833 1.0000 1.0000
vt 0.7167 1.0000 1.0000
vt 0.5000 1.0000 0.0000
# 157 texture coords

g base
usemtl wire_135077002
s 1
f 1/1/1 2/2/1 3/3/1 
f 1/1/1 4/4/1 2/2/1 
f 1/1/1 5/5/1 4/4/1 
f 1/1/1 6/6/1 5/5/1 
f 1/1/1 7/7/1 6/6/1 
f 1/1/1 8/8/1 7/7/1 
f 1/1/1 9/9/1 8/8/1 
f 1/1/1 10/10/1 9/11/1 
f 1/1/1 11/12/1 10/10/1 
f 1/1/1 12/13/1 11/12/1 
f 1/1/1 13/14/1 12/13/1 
f 1/1/1 14/15/1 13/14/1 
f 1/1/1 15/16/1 14/15/1 
f 1/1/1 16/17/1 15/16/1 
f 1/1/1 17/18/1 16/17/1 
f 1/1/1 18/19/1 17/18/1 
f 1/1/1 19/20/1 18/19/1 
f 1/1/1 20/21/1 19/20/1 
f 1/1/1 21/22/1 20/21/1 
f 1/1/1 22/23/1 21/22/1 
f 1/1/1 23/24/1 22/23/1 
f 1/1/1 24/25/1 23/24/1 
f 1/1/1 25/26/1 24/25/1 
f 1/1/1 26/27/1 25/26/1 
f 1/1/1 27/28/1 26/27/1 
f 1/1/1 28/29/1 27/28/1 
f 1/1/1 29/30/1 28/29/1 
f 1/1/1 30/31/1 29/30/1 
f 1/1/1 31/32/1 30/31/1 
f 1/1/1 3/3/1 31/32/1 
s 8
f 3/3/2 32/33/3 33/34/2 
f 3/3/2 2/2/3 32/33/3 
f 2/2/3 34/35/4 32/33/3 
f 2/2/3 4/4/4 34/35/4 
f 4/4/4 35/36/5 34/35/4 
f 4/4/4 5/5/5 35/36/5 
f 5/5/5 36/37/6 35/36/5 
f 5/5/5 6/6/6 36/37/6 
f 6/6/6 37/38/7 36/37/6 
f 6/6/6 7/7/7 37/38/7 
f 7/7/7 38/39/8 37/38/7 
f 7/7/7 8/8/8 38/39/8 
f 8/8/8 39/40/9 38/39/8 
f 8/8/8 9/9/9 39/40/9 
f 9/11/9 40/41/10 39/42/9 
f 9/11/9 10/10/10 40/41/10 
f 10/10/10 41/43/11 40/41/10 
f 10/10/10 11/12/11 41/43/11 
f 11/12/11 42/44/12 41/43/11 
f 11/12/11 12/13/12 42/44/12 
f 12/13/12 43/45/13 42/44/12 
f 12/13/12 13/14/13 43/45/13 
f 13/14/13 44/46/14 43/45/13 
f 13/14/13 14/15/14 44/46/14 
f 14/15/14 45/47/15 44/46/14 
f 14/15/14 15/16/15 45/47/15 
f 15/16/15 46/48/16 45/47/15 
f 15/16/15 16/17/16 46/48/16 
f 16/17/16 47/49/17 46/48/16 
f 16/17/16 17/18/18 47/49/17 
f 17/18/18 48/50/19 47/49/17 
f 17/18/18 18/19/19 48/50/19 
f 18/19/19 49/51/20 48/50/19 
f 18/19/19 19/20/20 49/51/20 
f 19/20/20 50/52/21 49/51/20 
f 19/20/20 20/21/21 50/52/21 
f 20/21/21 51/53/22 50/52/21 
f 20/21/21 21/22/22 51/53/22 
f 21/22/22 52/54/23 51/53/22 
f 21/22/22 22/23/23 52/54/23 
f 22/23/23 53/55/24 52/54/23 
f 22/23/23 23/24/24 53/55/24 
f 23/24/24 54/56/25 53/55/24 
f 23/24/24 24/25/25 54/56/25 
f 24/25/25 55/57/26 54/56/25 
f 24/25/25 25/26/26 55/57/26 
f 25/26/26 56/58/27 55/57/26 
f 25/26/26 26/27/27 56/58/27 
f 26/27/27 57/59/28 56/58/27 
f 26/27/27 27/28/28 57/59/28 
f 27/28/28 58/60/29 57/59/28 
f 27/28/28 28/29/29 58/60/29 
f 28/29/29 59/61/30 58/60/29 
f 28/29/29 29/30/30 59/61/30 
f 29/30/30 60/62/31 59/61/30 
f 29/30/30 30/31/31 60/62/31 
f 30/31/31 61/63/32 60/62/31 
f 30/31/31 31/32/32 61/63/32 
f 31/32/32 33/34/2 61/63/32 
f 31/32/32 3/3/2 33/34/2 
f 33/34/2 62/64/3 63/65/2 
f 33/34/2 32/33/3 62/64/3 
f 32/33/3 64/66/4 62/64/3 
f 32/33/3 34/35/4 64/66/4 
f 34/35/4 65/67/5 64/66/4 
f 34/35/4 35/36/5 65/67/5 
f 35/36/5 66/68/6 65/67/5 
f 35/36/5 36/37/6 66/68/6 
f 36/37/6 67/69/7 66/68/6 
f 36/37/6 37/38/7 67/69/7 
f 37/38/7 68/70/8 67/69/7 
f 37/38/7 38/39/8 68/70/8 
f 38/39/8 69/71/9 68/70/8 
f 38/39/8 39/40/9 69/71/9 
f 39/42/9 70/72/10 69/73/9 
f 39/42/9 40/41/10 70/72/10 
f 40/41/10 71/74/11 70/72/10 
f 40/41/10 41/43/11 71/74/11 
f 41/43/11 72/75/12 71/74/11 
f 41/43/11 42/44/12 72/75/12 
f 42/44/12 73/76/13 72/75/12 
f 42/44/12 43/45/13 73/76/13 
f 43/45/13 74/77/14 73/76/13 
f 43/45/13 44/46/14 74/77/14 
f 44/46/14 75/78/15 74/77/14 
f 44/46/14 45/47/15 75/78/15 
f 45/47/15 76/79/16 75/78/15 
f 45/47/15 46/48/16 76/79/16 
f 46/48/16 77/80/17 76/79/16 
f 46/48/16 47/49/17 77/80/17 
f 47/49/17 78/81/19 77/80/17 
f 47/49/17 48/50/19 78/81/19 
f 48/50/19 79/82/20 78/81/19 
f 48/50/19 49/51/20 79/82/20 
f 49/51/20 80/83/21 79/82/20 
f 49/51/20 50/52/21 80/83/21 
f 50/52/21 81/84/22 80/83/21 
f 50/52/21 51/53/22 81/84/22 
f 51/53/22 82/85/23 81/84/22 
f 51/53/22 52/54/23 82/85/23 
f 52/54/23 83/86/24 82/85/23 
f 52/54/23 53/55/24 83/86/24 
f 53/55/24 84/87/25 83/86/24 
f 53/55/24 54/56/25 84/87/25 
f 54/56/25 85/88/26 84/87/25 
f 54/56/25 55/57/26 85/88/26 
f 55/57/26 86/89/27 85/88/26 
f 55/57/26 56/58/27 86/89/27 
f 56/58/27 87/90/28 86/89/27 
f 56/58/27 57/59/28 87/90/28 
f 57/59/28 88/91/29 87/90/28 
f 57/59/28 58/60/29 88/91/29 
f 58/60/29 89/92/30 88/91/29 
f 58/60/29 59/61/30 89/92/30 
f 59/61/30 90/93/31 89/92/30 
f 59/61/30 60/62/31 90/93/31 
f 60/62/31 91/94/32 90/93/31 
f 60/62/31 61/63/32 91/94/32 
f 61/63/32 63/65/2 91/94/32 
f 61/63/32 33/34/2 63/65/2 
f 63/65/2 92/95/3 93/96/2 
f 63/65/2 62/64/3 92/95/3 
f 62/64/3 94/97/4 92/95/3 
f 62/64/3 64/66/4 94/97/4 
f 64/66/4 95/98/5 94/97/4 
f 64/66/4 65/67/5 95/98/5 
f 65/67/5 96/99/6 95/98/5 
f 65/67/5 66/68/6 96/99/6 
f 66/68/6 97/100/7 96/99/6 
f 66/68/6 67/69/7 97/100/7 
f 67/69/7 98/101/8 97/100/7 
f 67/69/7 68/70/8 98/101/8 
f 68/70/8 99/102/9 98/101/8 
f 68/70/8 69/71/9 99/102/9 
f 69/73/9 100/103/10 99/104/9 
f 69/73/9 70/72/10 100/103/10 
f 70/72/10 101/105/11 100/103/10 
f 70/72/10 71/74/11 101/105/11 
f 71/74/11 102/106/12 101/105/11 
f 71/74/11 72/75/12 102/106/12 
f 72/75/12 103/107/13 102/106/12 
f 72/75/12 73/76/13 103/107/13 
f 73/76/13 104/108/14 103/107/13 
f 73/76/13 74/77/14 104/108/14 
f 74/77/14 105/109/15 104/108/14 
f 74/77/14 75/78/15 105/109/15 
f 75/78/15 106/110/16 105/109/15 
f 75/78/15 76/79/16 106/110/16 
f 76/79/16 107/111/17 106/110/16 
f 76/79/16 77/80/17 107/111/17 
f 77/80/17 108/112/19 107/111/17 
f 77/80/17 78/81/19 108/112/19 
f 78/81/19 109/113/20 108/112/19 
f 78/81/19 79/82/20 109/113/20 
f 79/82/20 110/114/21 109/113/20 
f 79/82/20 80/83/21 110/114/21 
f 80/83/21 111/115/22 110/114/21 
f 80/83/21 81/84/22 111/115/22 
f 81/84/22 112/116/23 111/115/22 
f 81/84/22 82/85/23 112/116/23 
f 82/85/23 113/117/24 112/116/23 
f 82/85/23 83/86/24 113/117/24 
f 83/86/24 114/118/25 113/117/24 
f 83/86/24 84/87/25 114/118/25 
f 84/87/25 115/119/26 114/118/25 
f 84/87/25 85/88/26 115/119/26 
f 85/88/26 116/120/27 115/119/26 
f 85/88/26 86/89/27 116/120/27 
f 86/89/27 117/121/28 116/120/27 
f 86/89/27 87/90/28 117/121/28 
f 87/90/28 118/122/29 117/121/28 
f 87/90/28 88/91/29 118/122/29 
f 88/91/29 119/123/30 118/122/29 
f 88/91/29 89/92/30 119/123/30 
f 89/92/30 120/124/31 119/123/30 
f 89/92/30 90/93/31 120/124/31 
f 90/93/31 121/125/32 120/124/31 
f 90/93/31 91/94/32 121/125/32 
f 91/94/32 93/96/2 121/125/32 
f 91/94/32 63/65/2 93/96/2 
f 93/96/2 122/126/3 123/127/2 
f 93/96/2 92/95/3 122/126/3 
f 92/95/3 124/128/4 122/126/3 
f 92/95/3 94/97/4 124/128/4 
f 94/97/4 125/129/5 124/128/4 
f 94/97/4 95/98/5 125/129/5 
f 95/98/5 126/130/6 125/129/5 
f 95/98/5 96/99/6 126/130/6 
f 96/99/6 127/131/7 126/130/6 
f 96/99/6 97/100/7 127/131/7 
f 97/100/7 128/132/8 127/131/7 
f 97/100/7 98/101/8 128/132/8 
f 98/101/8 129/133/9 128/132/8 
f 98/101/8 99/102/9 129/133/9 
f 99/104/9 130/134/10 129/135/9 
f 99/104/9 100/103/10 130/134/10 
f 100/103/10 131/136/11 130/134/10 
f 100/103/10 101/105/11 131/136/11 
f 101/105/11 132/137/12 131/136/11 
f 101/105/11 102/106/12 132/137/12 
f 102/106/12 133/138/13 132/137/12 
f 102/106/12 103/107/13 133/138/13 
f 103/107/13 134/139/14 133/138/13 
f 103/107/13 104/108/14 134/139/14 
f 104/108/14 135/140/15 134/139/14 
f 104/108/14 105/109/15 135/140/15 
f 105/109/15 136/141/16 135/140/15 
f 105/109/15 106/110/16 136/141/16 
f 106/110/16 137/142/17 136/141/16 
f 106/110/16 107/111/17 137/142/17 
f 107/111/17 138/143/19 137/142/17 
f 107/111/17 108/112/19 138/143/19 
f 108/112/19 139/144/20 138/143/19 
f 108/112/19 109/113/20 139/144/20 
f 109/113/20 140/145/21 139/144/20 
f 109/113/20 110/114/21 140/145/21 
f 110/114/21 141/146/22 140/145/21 
f 110/114/21 111/115/22 141/146/22 
f 111/115/22 142/147/23 141/146/22 
f 111/115/22 112/116/23 142/147/23 
f 112/116/23 143/148/24 142/147/23 
f 112/116/23 113/117/24 143/148/24 
f 113/117/24 144/149/25 143/148/24 
f 113/117/24 114/118/25 144/149/25 
f 114/118/25 145/150/26 144/149/25 
f 114/118/25 115/119/26 145/150/26 
f 115/119/26 146/151/27 145/150/26 
f 115/119/26 116/120/27 146/151/27 
f 116/120/27 147/152/28 146/151/27 
f 116/120/27 117/121/28 147/152/28 
f 117/121/28 148/153/29 147/152/28 
f 117/121/28 118/122/29 148/153/29 
f 118/122/29 149/154/30 148/153/29 
f 118/122/29 119/123/30 149/154/30 
f 119/123/30 150/155/31 149/154/30 
f 119/123/30 120/124/31 150/155/31 
f 120/124/31 151/156/32 150/155/31 
f 120/124/31 121/125/32 151/156/32 
f 121/125/32 123/127/2 151/156/32 
f 121/125/32 93/96/2 123/127/2 
s 1
f 152/157/33 123/127/33 122/126/33 
f 152/157/33 122/126/33 124/128/33 
f 152/157/33 124/128/33 125/129/33 
f 152/157/33 125/129/33 126/130/33 
f 152/157/33 126/130/33 127/131/33 
f 152/157/33 127/131/33 128/132/33 
f 152/157/33 128/132/33 129/133/33 
f 152/157/33 129/135/33 130/134/33 
f 152/157/33 130/134/33 131/136/33 
f 152/157/33 131/136/33 132/137/33 
f 152/157/33 132/137/33 133/138/33 
f 152/157/33 133/138/33 134/139/33 
f 152/157/33 134/139/33 135/140/33 
f 152/157/33 135/140/33 136/141/33 
f 152/157/33 136/141/33 137/142/33 
f 152/157/33 137/142/33 138/143/33 
f 152/157/33 138/143/33 139/144/33 
f 152/157/33 139/144/33 140/145/33 
f 152/157/33 140/145/33 141/146/33 
f 152/157/33 141/146/33 142/147/33 
f 152/157/33 142/147/33 143/148/33 
f 152/157/33 143/148/33 144/149/33 
f 152/157/33 144/149/33 145/150/33 
f 152/157/33 145/150/33 146/151/33 
f 152/157/33 146/151/33 147/152/33 
f 152/157/33 147/152/33 148/153/33 
f 152/157/33 148/153/33 149/154/33 
f 152/157/33 149/154/33 150/155/33 
f 152/157/33 150/155/33 151/156/33 
f 152/157/33 151/156/33 123/127/33 
# 300 faces

