# 3ds Max Wavefront OBJ Exporter v0.97b - (c)2007 guruware
# File Created: 29.11.2012 01:09:26

mtllib sea.mtl

#
# object Cylinder001
#

v  -23.4122 -22.8519 45.9544
v  -15.6178 -22.8519 45.9544
v  -15.6178 -22.8519 37.5579
v  -23.4122 -22.8519 37.5579
v  -7.8234 -22.8519 45.9544
v  -7.8234 -22.8519 37.5579
v  -0.0290 -22.8519 45.9544
v  -0.0290 -22.8519 37.5579
v  7.7653 -22.8519 45.9544
v  7.7653 -22.8519 37.5579
v  15.5597 -22.8519 45.9544
v  15.5597 -22.8519 37.5579
v  23.3541 -22.8519 45.9544
v  23.3541 -22.8519 37.5579
v  -31.2066 -22.8519 37.5579
v  -23.4122 -22.8519 29.1615
v  -31.2066 -22.8519 29.1615
v  -15.6178 -22.8519 29.1615
v  -7.8234 -22.8519 29.1615
v  -0.0290 -22.8519 29.1615
v  7.7653 -22.8519 29.1615
v  15.5597 -22.8519 29.1615
v  23.3541 -22.8519 29.1615
v  31.1485 -22.8519 37.5579
v  31.1485 -22.8519 29.1615
v  -39.0010 -22.8519 29.1615
v  -31.2066 -22.8519 20.7650
v  -39.0010 -22.8519 20.7650
v  -23.4122 -22.8519 20.7650
v  -15.6178 -22.8519 20.7650
v  -7.8234 -22.8519 20.7650
v  -0.0290 -22.8519 20.7650
v  7.7653 -22.8519 20.7650
v  15.5597 -22.8519 20.7650
v  23.3541 -22.8519 20.7650
v  31.1485 -22.8519 20.7650
v  38.9429 -22.8519 29.1615
v  38.9429 -22.8519 20.7650
v  -46.7954 -22.8519 20.7650
v  -39.0010 -22.8519 12.3685
v  -46.7954 -22.8519 12.3685
v  -31.2066 -22.8519 12.3685
v  -23.4122 -22.8519 12.3685
v  -15.6178 -22.8519 12.3685
v  -7.8234 -22.8519 12.3685
v  -0.0290 -22.8519 12.3685
v  7.7653 -22.8519 12.3685
v  15.5597 -22.8519 12.3685
v  23.3541 -22.8519 12.3685
v  31.1485 -22.8519 12.3685
v  38.9429 -22.8519 12.3685
v  46.7373 -22.8519 20.7650
v  46.7373 -22.8519 12.3685
v  -39.0010 -22.8519 3.9720
v  -46.7954 -22.8519 3.9720
v  -31.2066 -22.8519 3.9720
v  -23.4122 -22.8519 3.9720
v  -15.6178 -22.8519 3.9720
v  -7.8234 -22.8519 3.9720
v  -0.0290 -22.8519 3.9720
v  7.7653 -22.8519 3.9720
v  15.5597 -22.8519 3.9720
v  23.3541 -22.8519 3.9720
v  31.1485 -22.8519 3.9720
v  38.9429 -22.8519 3.9720
v  46.7373 -22.8519 3.9720
v  -39.0010 -22.8519 -4.4245
v  -46.7954 -22.8519 -4.4245
v  -31.2066 -22.8519 -4.4245
v  -23.4122 -22.8519 -4.4245
v  -15.6178 -22.8519 -4.4245
v  -7.8234 -22.8519 -4.4245
v  -0.0290 -22.8519 -4.4245
v  7.7653 -22.8519 -4.4245
v  15.5597 -22.8519 -4.4245
v  23.3541 -22.8519 -4.4245
v  31.1485 -22.8519 -4.4245
v  38.9429 -22.8519 -4.4245
v  46.7373 -22.8519 -4.4245
v  -39.0010 -22.8519 -12.8210
v  -46.7954 -22.8519 -12.8210
v  -31.2066 -22.8519 -12.8210
v  -23.4122 -22.8519 -12.8210
v  -15.6178 -22.8519 -12.8210
v  -7.8234 -22.8519 -12.8210
v  -0.0290 -22.8519 -12.8210
v  7.7653 -22.8519 -12.8210
v  15.5597 -22.8519 -12.8210
v  23.3541 -22.8519 -12.8210
v  31.1485 -22.8519 -12.8210
v  38.9429 -22.8519 -12.8210
v  46.7373 -22.8519 -12.8210
v  -39.0010 -22.8519 -21.2174
v  -46.7954 -22.8519 -21.2174
v  -31.2066 -22.8519 -21.2174
v  -23.4122 -22.8519 -21.2174
v  -15.6178 -22.8519 -21.2174
v  -7.8234 -22.8519 -21.2174
v  -0.0290 -22.8519 -21.2174
v  7.7653 -22.8519 -21.2174
v  15.5597 -22.8519 -21.2174
v  23.3541 -22.8519 -21.2174
v  31.1485 -22.8519 -21.2174
v  38.9429 -22.8519 -21.2174
v  46.7373 -22.8519 -21.2174
v  -31.2066 -22.8519 -29.6139
v  -39.0010 -22.8519 -29.6139
v  -23.4122 -22.8519 -29.6139
v  -15.6178 -22.8519 -29.6139
v  -7.8234 -22.8519 -29.6139
v  -0.0290 -22.8519 -29.6139
v  7.7653 -22.8519 -29.6139
v  15.5597 -22.8519 -29.6139
v  23.3541 -22.8519 -29.6139
v  31.1485 -22.8519 -29.6139
v  38.9429 -22.8519 -29.6139
v  -23.4122 -22.8519 -38.0104
v  -31.2066 -22.8519 -38.0104
v  -15.6178 -22.8519 -38.0104
v  -7.8234 -22.8519 -38.0104
v  -0.0290 -22.8519 -38.0104
v  7.7653 -22.8519 -38.0104
v  15.5597 -22.8519 -38.0104
v  23.3541 -22.8519 -38.0104
v  31.1485 -22.8519 -38.0104
v  -15.6178 -22.8519 -46.4069
v  -23.4122 -22.8519 -46.4069
v  -7.8234 -22.8519 -46.4069
v  -0.0290 -22.8519 -46.4069
v  7.7653 -22.8519 -46.4069
v  15.5597 -22.8519 -46.4069
v  23.3541 -22.8519 -46.4069
v  53.7721 -22.8519 3.9720
v  54.1896 -22.8519 -0.0000
v  53.7246 -22.8519 -4.4245
v  53.0055 -22.8519 -11.2667
v  52.5004 -22.8519 -12.8210
v  49.7723 -22.8519 -21.2174
v  46.7373 -22.8519 -26.8342
v  45.1324 -22.8519 -29.6139
v  49.5047 -22.8519 -22.0409
v  43.8403 -22.8519 -31.8519
v  38.9429 -22.8519 -37.2910
v  38.2952 -22.8519 -38.0104
v  36.2599 -22.8519 -40.2707
v  31.1485 -22.8519 -43.9844
v  27.8143 -22.8519 -46.4069
v  27.0948 -22.8519 -46.9296
v  23.3541 -22.8519 -48.5951
v  16.7455 -22.8519 -51.5374
v  15.5597 -22.8519 -51.7894
v  7.7653 -22.8519 -53.4462
v  5.6644 -22.8519 -53.8928
v  -0.0290 -22.8519 -53.8928
v  -5.6644 -22.8519 -53.8928
v  -7.8234 -22.8519 -53.4338
v  -15.6178 -22.8519 -51.7771
v  -16.7455 -22.8519 -51.5374
v  -23.4122 -22.8519 -48.5692
v  -27.0948 -22.8519 -46.9296
v  -27.8143 -22.8519 -46.4069
v  -31.2066 -22.8519 -43.9422
v  -43.8403 -22.8519 -31.8519
v  -45.1324 -22.8519 -29.6139
v  -39.0010 -22.8519 -37.2265
v  -36.2599 -22.8519 -40.2707
v  -38.2951 -22.8519 -38.0104
v  -49.5047 -22.8519 -22.0409
v  -49.7723 -22.8519 -21.2174
v  -46.7954 -22.8519 -26.7336
v  -52.5004 -22.8519 -12.8210
v  -53.0055 -22.8519 -11.2667
v  -53.7246 -22.8519 -4.4245
v  -54.1896 -22.8519 0.0000
v  -53.7722 -22.8519 3.9720
v  -53.0055 -22.8519 11.2667
v  -52.6474 -22.8519 12.3685
v  -49.9193 -22.8519 20.7650
v  -49.5047 -22.8519 22.0409
v  -46.7954 -22.8519 26.7336
v  -45.3936 -22.8519 29.1615
v  -36.2599 -22.8519 40.2707
v  -31.2066 -22.8519 43.9422
v  -38.7026 -22.8519 37.5579
v  -43.8403 -22.8519 31.8519
v  -39.0010 -22.8519 37.2265
v  -27.0948 -22.8519 46.9296
v  -23.4122 -22.8519 48.5692
v  -28.4370 -22.8519 45.9544
v  -16.7455 -22.8519 51.5374
v  -15.6178 -22.8519 51.7771
v  -7.8234 -22.8519 53.4338
v  -5.6644 -22.8519 53.8928
v  -0.0290 -22.8519 53.8928
v  5.6643 -22.8519 53.8928
v  7.7653 -22.8519 53.4462
v  15.5597 -22.8519 51.7894
v  16.7455 -22.8519 51.5374
v  23.3541 -22.8519 48.5951
v  27.0948 -22.8519 46.9296
v  28.4370 -22.8519 45.9544
v  31.1485 -22.8519 43.9844
v  36.2599 -22.8519 40.2708
v  38.7025 -22.8519 37.5579
v  38.9429 -22.8519 37.2910
v  43.8403 -22.8519 31.8519
v  45.3936 -22.8519 29.1615
v  46.7373 -22.8519 26.8342
v  49.5047 -22.8519 22.0410
v  49.9193 -22.8519 20.7650
v  52.6475 -22.8519 12.3685
v  53.0054 -22.8519 11.2668
# 212 vertices

vn -0.0000 1.0000 -0.0000
vn 0.0000 1.0000 -0.0000
vn -0.0000 1.0000 0.0000
vn 0.0000 1.0000 0.0000
# 4 vertex normals

vt 0.3125 0.1250 0.0000
vt 0.3750 0.1250 0.0000
vt 0.3750 0.1875 0.0000
vt 0.3125 0.1875 0.0000
vt 0.4375 0.1250 0.0000
vt 0.4375 0.1875 0.0000
vt 0.5000 0.1250 0.0000
vt 0.5000 0.1875 0.0000
vt 0.5625 0.1250 0.0000
vt 0.5625 0.1875 0.0000
vt 0.6250 0.1250 0.0000
vt 0.6250 0.1875 0.0000
vt 0.6875 0.1250 0.0000
vt 0.6875 0.1875 0.0000
vt 0.2500 0.1875 0.0000
vt 0.3125 0.2500 0.0000
vt 0.2500 0.2500 0.0000
vt 0.3750 0.2500 0.0000
vt 0.4375 0.2500 0.0000
vt 0.5000 0.2500 0.0000
vt 0.5625 0.2500 0.0000
vt 0.6250 0.2500 0.0000
vt 0.6875 0.2500 0.0000
vt 0.7500 0.1875 0.0000
vt 0.7500 0.2500 0.0000
vt 0.1875 0.2500 0.0000
vt 0.2500 0.3125 0.0000
vt 0.1875 0.3125 0.0000
vt 0.3125 0.3125 0.0000
vt 0.3750 0.3125 0.0000
vt 0.4375 0.3125 0.0000
vt 0.5000 0.3125 0.0000
vt 0.5625 0.3125 0.0000
vt 0.6250 0.3125 0.0000
vt 0.6875 0.3125 0.0000
vt 0.7500 0.3125 0.0000
vt 0.8125 0.2500 0.0000
vt 0.8125 0.3125 0.0000
vt 0.1250 0.3125 0.0000
vt 0.1875 0.3750 0.0000
vt 0.1250 0.3750 0.0000
vt 0.2500 0.3750 0.0000
vt 0.3125 0.3750 0.0000
vt 0.3750 0.3750 0.0000
vt 0.4375 0.3750 0.0000
vt 0.5000 0.3750 0.0000
vt 0.5625 0.3750 0.0000
vt 0.6250 0.3750 0.0000
vt 0.6875 0.3750 0.0000
vt 0.7500 0.3750 0.0000
vt 0.8125 0.3750 0.0000
vt 0.8750 0.3125 0.0000
vt 0.8750 0.3750 0.0000
vt 0.1875 0.4375 0.0000
vt 0.1250 0.4375 0.0000
vt 0.2500 0.4375 0.0000
vt 0.3125 0.4375 0.0000
vt 0.3750 0.4375 0.0000
vt 0.4375 0.4375 0.0000
vt 0.5000 0.4375 0.0000
vt 0.5625 0.4375 0.0000
vt 0.6250 0.4375 0.0000
vt 0.6875 0.4375 0.0000
vt 0.7500 0.4375 0.0000
vt 0.8125 0.4375 0.0000
vt 0.8750 0.4375 0.0000
vt 0.1875 0.5000 0.0000
vt 0.1250 0.5000 0.0000
vt 0.2500 0.5000 0.0000
vt 0.3125 0.5000 0.0000
vt 0.3750 0.5000 0.0000
vt 0.4375 0.5000 0.0000
vt 0.5000 0.5000 0.0000
vt 0.5625 0.5000 0.0000
vt 0.6250 0.5000 0.0000
vt 0.6875 0.5000 0.0000
vt 0.7500 0.5000 0.0000
vt 0.8125 0.5000 0.0000
vt 0.8750 0.5000 0.0000
vt 0.1875 0.5625 0.0000
vt 0.1250 0.5625 0.0000
vt 0.2500 0.5625 0.0000
vt 0.3125 0.5625 0.0000
vt 0.3750 0.5625 0.0000
vt 0.4375 0.5625 0.0000
vt 0.5000 0.5625 0.0000
vt 0.5625 0.5625 0.0000
vt 0.6250 0.5625 0.0000
vt 0.6875 0.5625 0.0000
vt 0.7500 0.5625 0.0000
vt 0.8125 0.5625 0.0000
vt 0.8750 0.5625 0.0000
vt 0.1875 0.6250 0.0000
vt 0.1250 0.6250 0.0000
vt 0.2500 0.6250 0.0000
vt 0.3125 0.6250 0.0000
vt 0.3750 0.6250 0.0000
vt 0.4375 0.6250 0.0000
vt 0.5000 0.6250 0.0000
vt 0.5625 0.6250 0.0000
vt 0.6250 0.6250 0.0000
vt 0.6875 0.6250 0.0000
vt 0.7500 0.6250 0.0000
vt 0.8125 0.6250 0.0000
vt 0.8750 0.6250 0.0000
vt 0.2500 0.6875 0.0000
vt 0.1875 0.6875 0.0000
vt 0.3125 0.6875 0.0000
vt 0.3750 0.6875 0.0000
vt 0.4375 0.6875 0.0000
vt 0.5000 0.6875 0.0000
vt 0.5625 0.6875 0.0000
vt 0.6250 0.6875 0.0000
vt 0.6875 0.6875 0.0000
vt 0.7500 0.6875 0.0000
vt 0.8125 0.6875 0.0000
vt 0.3125 0.7500 0.0000
vt 0.2500 0.7500 0.0000
vt 0.3750 0.7500 0.0000
vt 0.4375 0.7500 0.0000
vt 0.5000 0.7500 0.0000
vt 0.5625 0.7500 0.0000
vt 0.6250 0.7500 0.0000
vt 0.6875 0.7500 0.0000
vt 0.7500 0.7500 0.0000
vt 0.3750 0.8125 0.0000
vt 0.3125 0.8125 0.0000
vt 0.4375 0.8125 0.0000
vt 0.5000 0.8125 0.0000
vt 0.5625 0.8125 0.0000
vt 0.6250 0.8125 0.0000
vt 0.6875 0.8125 0.0000
vt 0.9314 0.4375 0.0000
vt 0.9348 0.4671 0.0000
vt 0.9310 0.5000 0.0000
vt 0.9253 0.5509 0.0000
vt 0.9212 0.5625 0.0000
vt 0.8993 0.6250 0.0000
vt 0.8750 0.6668 0.0000
vt 0.8621 0.6875 0.0000
vt 0.8972 0.6311 0.0000
vt 0.8518 0.7042 0.0000
vt 0.8125 0.7446 0.0000
vt 0.8073 0.7500 0.0000
vt 0.7910 0.7668 0.0000
vt 0.7500 0.7945 0.0000
vt 0.7233 0.8125 0.0000
vt 0.7175 0.8164 0.0000
vt 0.6875 0.8288 0.0000
vt 0.6345 0.8507 0.0000
vt 0.6250 0.8526 0.0000
vt 0.5625 0.8649 0.0000
vt 0.5457 0.8682 0.0000
vt 0.5000 0.8682 0.0000
vt 0.4548 0.8682 0.0000
vt 0.4375 0.8648 0.0000
vt 0.3750 0.8525 0.0000
vt 0.3660 0.8507 0.0000
vt 0.3125 0.8286 0.0000
vt 0.2830 0.8164 0.0000
vt 0.2772 0.8125 0.0000
vt 0.2500 0.7942 0.0000
vt 0.1487 0.7042 0.0000
vt 0.1383 0.6875 0.0000
vt 0.1875 0.7442 0.0000
vt 0.2095 0.7668 0.0000
vt 0.1932 0.7500 0.0000
vt 0.1033 0.6311 0.0000
vt 0.1011 0.6250 0.0000
vt 0.1250 0.6661 0.0000
vt 0.0793 0.5625 0.0000
vt 0.0752 0.5509 0.0000
vt 0.0694 0.5000 0.0000
vt 0.0657 0.4671 0.0000
vt 0.0691 0.4375 0.0000
vt 0.0752 0.3832 0.0000
vt 0.0781 0.3750 0.0000
vt 0.1000 0.3125 0.0000
vt 0.1033 0.3030 0.0000
vt 0.1250 0.2681 0.0000
vt 0.1362 0.2500 0.0000
vt 0.2095 0.1673 0.0000
vt 0.2500 0.1400 0.0000
vt 0.1899 0.1875 0.0000
vt 0.1487 0.2300 0.0000
vt 0.1875 0.1900 0.0000
vt 0.2830 0.1177 0.0000
vt 0.3125 0.1055 0.0000
vt 0.2722 0.1250 0.0000
vt 0.3660 0.0834 0.0000
vt 0.3750 0.0817 0.0000
vt 0.4375 0.0693 0.0000
vt 0.4548 0.0659 0.0000
vt 0.5000 0.0659 0.0000
vt 0.5457 0.0659 0.0000
vt 0.5625 0.0692 0.0000
vt 0.6250 0.0816 0.0000
vt 0.6345 0.0834 0.0000
vt 0.6875 0.1053 0.0000
vt 0.7175 0.1177 0.0000
vt 0.7283 0.1250 0.0000
vt 0.7500 0.1397 0.0000
vt 0.7910 0.1673 0.0000
vt 0.8106 0.1875 0.0000
vt 0.8125 0.1895 0.0000
vt 0.8518 0.2300 0.0000
vt 0.8642 0.2500 0.0000
vt 0.8750 0.2673 0.0000
vt 0.8972 0.3030 0.0000
vt 0.9005 0.3125 0.0000
vt 0.9224 0.3750 0.0000
vt 0.9253 0.3832 0.0000
# 212 texture coords

g Cylinder001
usemtl wire_008110135
s 1
f 1/1/1 2/2/2 3/3/2 
f 3/3/2 4/4/3 1/1/1 
f 2/2/2 5/5/3 6/6/2 
f 6/6/2 3/3/2 2/2/2 
f 5/5/3 7/7/1 8/8/2 
f 8/8/2 6/6/2 5/5/3 
f 7/7/1 9/9/1 10/10/2 
f 10/10/2 8/8/2 7/7/1 
f 9/9/1 11/11/2 12/12/2 
f 12/12/2 10/10/2 9/9/1 
f 11/11/2 13/13/4 14/14/4 
f 14/14/4 12/12/2 11/11/2 
f 15/15/4 4/4/3 16/16/2 
f 16/16/2 17/17/2 15/15/4 
f 4/4/3 3/3/2 18/18/2 
f 18/18/2 16/16/2 4/4/3 
f 3/3/2 6/6/2 19/19/2 
f 19/19/2 18/18/2 3/3/2 
f 6/6/2 8/8/2 20/20/2 
f 20/20/2 19/19/2 6/6/2 
f 8/8/2 10/10/2 21/21/2 
f 21/21/2 20/20/2 8/8/2 
f 10/10/2 12/12/2 22/22/2 
f 22/22/2 21/21/2 10/10/2 
f 12/12/2 14/14/4 23/23/2 
f 23/23/2 22/22/2 12/12/2 
f 14/14/4 24/24/3 25/25/2 
f 25/25/2 23/23/2 14/14/4 
f 26/26/1 17/17/2 27/27/2 
f 27/27/2 28/28/3 26/26/1 
f 17/17/2 16/16/2 29/29/2 
f 29/29/2 27/27/2 17/17/2 
f 16/16/2 18/18/2 30/30/2 
f 30/30/2 29/29/2 16/16/2 
f 18/18/2 19/19/2 31/31/2 
f 31/31/2 30/30/2 18/18/2 
f 19/19/2 20/20/2 32/32/2 
f 32/32/2 31/31/2 19/19/2 
f 20/20/2 21/21/2 33/33/2 
f 33/33/2 32/32/2 20/20/2 
f 21/21/2 22/22/2 34/34/2 
f 34/34/2 33/33/2 21/21/2 
f 22/22/2 23/23/2 35/35/2 
f 35/35/2 34/34/2 22/22/2 
f 23/23/2 25/25/2 36/36/2 
f 36/36/2 35/35/2 23/23/2 
f 25/25/2 37/37/2 38/38/2 
f 38/38/2 36/36/2 25/25/2 
f 39/39/4 28/28/3 40/40/2 
f 40/40/2 41/41/3 39/39/4 
f 28/28/3 27/27/2 42/42/2 
f 42/42/2 40/40/2 28/28/3 
f 27/27/2 29/29/2 43/43/2 
f 43/43/2 42/42/2 27/27/2 
f 29/29/2 30/30/2 44/44/2 
f 44/44/2 43/43/2 29/29/2 
f 30/30/2 31/31/2 45/45/2 
f 45/45/2 44/44/2 30/30/2 
f 31/31/2 32/32/2 46/46/2 
f 46/46/2 45/45/2 31/31/2 
f 32/32/2 33/33/2 47/47/2 
f 47/47/2 46/46/2 32/32/2 
f 33/33/2 34/34/2 48/48/2 
f 48/48/2 47/47/2 33/33/2 
f 34/34/2 35/35/2 49/49/2 
f 49/49/2 48/48/2 34/34/2 
f 35/35/2 36/36/2 50/50/2 
f 50/50/2 49/49/2 35/35/2 
f 36/36/2 38/38/2 51/51/2 
f 51/51/2 50/50/2 36/36/2 
f 38/38/2 52/52/2 53/53/4 
f 53/53/4 51/51/2 38/38/2 
f 41/41/3 40/40/2 54/54/2 
f 54/54/2 55/55/2 41/41/3 
f 40/40/2 42/42/2 56/56/2 
f 56/56/2 54/54/2 40/40/2 
f 42/42/2 43/43/2 57/57/2 
f 57/57/2 56/56/2 42/42/2 
f 43/43/2 44/44/2 58/58/2 
f 58/58/2 57/57/2 43/43/2 
f 44/44/2 45/45/2 59/59/2 
f 59/59/2 58/58/2 44/44/2 
f 45/45/2 46/46/2 60/60/2 
f 60/60/2 59/59/2 45/45/2 
f 46/46/2 47/47/2 61/61/2 
f 61/61/2 60/60/2 46/46/2 
f 47/47/2 48/48/2 62/62/2 
f 62/62/2 61/61/2 47/47/2 
f 48/48/2 49/49/2 63/63/2 
f 63/63/2 62/62/2 48/48/2 
f 49/49/2 50/50/2 64/64/2 
f 64/64/2 63/63/2 49/49/2 
f 50/50/2 51/51/2 65/65/2 
f 65/65/2 64/64/2 50/50/2 
f 51/51/2 53/53/4 66/66/4 
f 66/66/4 65/65/2 51/51/2 
f 55/55/2 54/54/2 67/67/2 
f 67/67/2 68/68/4 55/55/2 
f 54/54/2 56/56/2 69/69/2 
f 69/69/2 67/67/2 54/54/2 
f 56/56/2 57/57/2 70/70/2 
f 70/70/2 69/69/2 56/56/2 
f 57/57/2 58/58/2 71/71/2 
f 71/71/2 70/70/2 57/57/2 
f 58/58/2 59/59/2 72/72/2 
f 72/72/2 71/71/2 58/58/2 
f 59/59/2 60/60/2 73/73/2 
f 73/73/2 72/72/2 59/59/2 
f 60/60/2 61/61/2 74/74/2 
f 74/74/2 73/73/2 60/60/2 
f 61/61/2 62/62/2 75/75/2 
f 75/75/2 74/74/2 61/61/2 
f 62/62/2 63/63/2 76/76/2 
f 76/76/2 75/75/2 62/62/2 
f 63/63/2 64/64/2 77/77/2 
f 77/77/2 76/76/2 63/63/2 
f 64/64/2 65/65/2 78/78/2 
f 78/78/2 77/77/2 64/64/2 
f 65/65/2 66/66/4 79/79/2 
f 79/79/2 78/78/2 65/65/2 
f 68/68/4 67/67/2 80/80/2 
f 80/80/2 81/81/4 68/68/4 
f 67/67/2 69/69/2 82/82/2 
f 82/82/2 80/80/2 67/67/2 
f 69/69/2 70/70/2 83/83/2 
f 83/83/2 82/82/2 69/69/2 
f 70/70/2 71/71/2 84/84/2 
f 84/84/2 83/83/2 70/70/2 
f 71/71/2 72/72/2 85/85/2 
f 85/85/2 84/84/2 71/71/2 
f 72/72/2 73/73/2 86/86/2 
f 86/86/2 85/85/2 72/72/2 
f 73/73/2 74/74/2 87/87/2 
f 87/87/2 86/86/2 73/73/2 
f 74/74/2 75/75/2 88/88/2 
f 88/88/2 87/87/2 74/74/2 
f 75/75/2 76/76/2 89/89/2 
f 89/89/2 88/88/2 75/75/2 
f 76/76/2 77/77/2 90/90/2 
f 90/90/2 89/89/2 76/76/2 
f 77/77/2 78/78/2 91/91/2 
f 91/91/2 90/90/2 77/77/2 
f 78/78/2 79/79/2 92/92/1 
f 92/92/1 91/91/2 78/78/2 
f 81/81/4 80/80/2 93/93/2 
f 93/93/2 94/94/2 81/81/4 
f 80/80/2 82/82/2 95/95/2 
f 95/95/2 93/93/2 80/80/2 
f 82/82/2 83/83/2 96/96/2 
f 96/96/2 95/95/2 82/82/2 
f 83/83/2 84/84/2 97/97/2 
f 97/97/2 96/96/2 83/83/2 
f 84/84/2 85/85/2 98/98/2 
f 98/98/2 97/97/2 84/84/2 
f 85/85/2 86/86/2 99/99/2 
f 99/99/2 98/98/2 85/85/2 
f 86/86/2 87/87/2 100/100/2 
f 100/100/2 99/99/2 86/86/2 
f 87/87/2 88/88/2 101/101/2 
f 101/101/2 100/100/2 87/87/2 
f 88/88/2 89/89/2 102/102/2 
f 102/102/2 101/101/2 88/88/2 
f 89/89/2 90/90/2 103/103/2 
f 103/103/2 102/102/2 89/89/2 
f 90/90/2 91/91/2 104/104/2 
f 104/104/2 103/103/2 90/90/2 
f 91/91/2 92/92/1 105/105/2 
f 105/105/2 104/104/2 91/91/2 
f 93/93/2 95/95/2 106/106/2 
f 106/106/2 107/107/1 93/93/2 
f 95/95/2 96/96/2 108/108/2 
f 108/108/2 106/106/2 95/95/2 
f 96/96/2 97/97/2 109/109/2 
f 109/109/2 108/108/2 96/96/2 
f 97/97/2 98/98/2 110/110/2 
f 110/110/2 109/109/2 97/97/2 
f 98/98/2 99/99/2 111/111/2 
f 111/111/2 110/110/2 98/98/2 
f 99/99/2 100/100/2 112/112/2 
f 112/112/2 111/111/2 99/99/2 
f 100/100/2 101/101/2 113/113/2 
f 113/113/2 112/112/2 100/100/2 
f 101/101/2 102/102/2 114/114/2 
f 114/114/2 113/113/2 101/101/2 
f 102/102/2 103/103/2 115/115/2 
f 115/115/2 114/114/2 102/102/2 
f 103/103/2 104/104/2 116/116/2 
f 116/116/2 115/115/2 103/103/2 
f 106/106/2 108/108/2 117/117/2 
f 117/117/2 118/118/2 106/106/2 
f 108/108/2 109/109/2 119/119/2 
f 119/119/2 117/117/2 108/108/2 
f 109/109/2 110/110/2 120/120/2 
f 120/120/2 119/119/2 109/109/2 
f 110/110/2 111/111/2 121/121/2 
f 121/121/2 120/120/2 110/110/2 
f 111/111/2 112/112/2 122/122/2 
f 122/122/2 121/121/2 111/111/2 
f 112/112/2 113/113/2 123/123/2 
f 123/123/2 122/122/2 112/112/2 
f 113/113/2 114/114/2 124/124/2 
f 124/124/2 123/123/2 113/113/2 
f 114/114/2 115/115/2 125/125/2 
f 125/125/2 124/124/2 114/114/2 
f 117/117/2 119/119/2 126/126/3 
f 126/126/3 127/127/2 117/117/2 
f 119/119/2 120/120/2 128/128/4 
f 128/128/4 126/126/3 119/119/2 
f 120/120/2 121/121/2 129/129/2 
f 129/129/2 128/128/4 120/120/2 
f 121/121/2 122/122/2 130/130/3 
f 130/130/3 129/129/2 121/121/2 
f 122/122/2 123/123/2 131/131/4 
f 131/131/4 130/130/3 122/122/2 
f 123/123/2 124/124/2 132/132/4 
f 132/132/4 131/131/4 123/123/2 
f 66/66/4 133/133/4 134/134/4 
f 79/79/2 66/66/4 134/134/4 
f 135/135/2 79/79/2 134/134/4 
f 136/136/3 137/137/3 92/92/1 
f 136/136/3 92/92/1 79/79/2 
f 136/136/3 79/79/2 135/135/2 
f 138/138/3 105/105/2 92/92/1 
f 92/92/1 137/137/3 138/138/3 
f 104/104/2 105/105/2 139/139/4 
f 116/116/2 104/104/2 139/139/4 
f 140/140/2 116/116/2 139/139/4 
f 139/139/4 105/105/2 138/138/3 
f 138/138/3 141/141/3 139/139/4 
f 142/142/2 143/143/2 116/116/2 
f 116/116/2 140/140/2 142/142/2 
f 115/115/2 116/116/2 143/143/2 
f 125/125/2 115/115/2 143/143/2 
f 144/144/2 125/125/2 143/143/2 
f 145/145/4 146/146/2 125/125/2 
f 125/125/2 144/144/2 145/145/4 
f 124/124/2 125/125/2 146/146/2 
f 132/132/4 124/124/2 146/146/2 
f 147/147/2 132/132/4 146/146/2 
f 148/148/4 149/149/2 132/132/4 
f 132/132/4 147/147/2 148/148/4 
f 150/150/4 151/151/4 131/131/4 
f 131/131/4 132/132/4 149/149/2 
f 150/150/4 131/131/4 149/149/2 
f 130/130/3 131/131/4 151/151/4 
f 151/151/4 152/152/1 130/130/3 
f 130/130/3 152/152/1 153/153/2 
f 129/129/2 130/130/3 153/153/2 
f 154/154/2 129/129/2 153/153/2 
f 155/155/2 156/156/2 128/128/4 
f 155/155/2 128/128/4 129/129/2 
f 155/155/2 129/129/2 154/154/2 
f 157/157/3 126/126/3 128/128/4 
f 128/128/4 156/156/2 157/157/3 
f 158/158/3 159/159/2 127/127/2 
f 158/158/3 127/127/2 126/126/3 
f 158/158/3 126/126/3 157/157/3 
f 160/160/2 161/161/2 127/127/2 
f 127/127/2 159/159/2 160/160/2 
f 118/118/2 117/117/2 127/127/2 
f 162/162/2 118/118/2 127/127/2 
f 162/162/2 127/127/2 161/161/2 
f 163/163/3 164/164/1 107/107/1 
f 107/107/1 165/165/2 163/163/3 
f 166/166/2 167/167/2 118/118/2 
f 118/118/2 162/162/2 166/166/2 
f 107/107/1 106/106/2 118/118/2 
f 165/165/2 107/107/1 118/118/2 
f 165/165/2 118/118/2 167/167/2 
f 168/168/2 169/169/2 94/94/2 
f 94/94/2 170/170/1 168/168/2 
f 94/94/2 93/93/2 107/107/1 
f 170/170/1 94/94/2 107/107/1 
f 170/170/1 107/107/1 164/164/1 
f 169/169/2 171/171/4 81/81/4 
f 81/81/4 94/94/2 169/169/2 
f 81/81/4 171/171/4 172/172/2 
f 68/68/4 81/81/4 172/172/2 
f 173/173/4 68/68/4 172/172/2 
f 68/68/4 173/173/4 174/174/4 
f 55/55/2 68/68/4 174/174/4 
f 175/175/2 55/55/2 174/174/4 
f 176/176/3 177/177/3 41/41/3 
f 176/176/3 41/41/3 55/55/2 
f 176/176/3 55/55/2 175/175/2 
f 178/178/1 39/39/4 41/41/3 
f 41/41/3 177/177/3 178/178/1 
f 179/179/2 180/180/2 39/39/4 
f 39/39/4 178/178/1 179/179/2 
f 181/181/1 26/26/1 28/28/3 
f 181/181/1 28/28/3 39/39/4 
f 181/181/1 39/39/4 180/180/2 
f 182/182/2 183/183/2 15/15/4 
f 15/15/4 184/184/2 182/182/2 
f 185/185/1 186/186/2 26/26/1 
f 26/26/1 181/181/1 185/185/1 
f 184/184/2 15/15/4 17/17/2 
f 184/184/2 17/17/2 26/26/1 
f 184/184/2 26/26/1 186/186/2 
f 187/187/1 188/188/2 1/1/1 
f 1/1/1 189/189/1 187/187/1 
f 189/189/1 1/1/1 4/4/3 
f 189/189/1 4/4/3 15/15/4 
f 189/189/1 15/15/4 183/183/2 
f 190/190/2 191/191/4 2/2/2 
f 2/2/2 1/1/1 188/188/2 
f 190/190/2 2/2/2 188/188/2 
f 5/5/3 2/2/2 191/191/4 
f 191/191/4 192/192/3 5/5/3 
f 5/5/3 192/192/3 193/193/3 
f 7/7/1 5/5/3 193/193/3 
f 194/194/1 7/7/1 193/193/3 
f 195/195/2 196/196/1 9/9/1 
f 195/195/2 9/9/1 7/7/1 
f 195/195/2 7/7/1 194/194/1 
f 197/197/2 11/11/2 9/9/1 
f 9/9/1 196/196/1 197/197/2 
f 198/198/2 199/199/4 13/13/4 
f 198/198/2 13/13/4 11/11/2 
f 198/198/2 11/11/2 197/197/2 
f 200/200/2 201/201/2 13/13/4 
f 13/13/4 199/199/4 200/200/2 
f 14/14/4 13/13/4 201/201/2 
f 24/24/3 14/14/4 201/201/2 
f 202/202/1 24/24/3 201/201/2 
f 203/203/2 204/204/2 24/24/3 
f 24/24/3 202/202/1 203/203/2 
f 25/25/2 24/24/3 204/204/2 
f 37/37/2 25/25/2 204/204/2 
f 205/205/2 37/37/2 204/204/2 
f 206/206/2 207/207/2 37/37/2 
f 37/37/2 205/205/2 206/206/2 
f 38/38/2 37/37/2 207/207/2 
f 52/52/2 38/38/2 207/207/2 
f 208/208/2 52/52/2 207/207/2 
f 209/209/2 210/210/2 52/52/2 
f 52/52/2 208/208/2 209/209/2 
f 53/53/4 52/52/2 210/210/2 
f 210/210/2 211/211/4 53/53/4 
f 53/53/4 211/211/4 212/212/4 
f 66/66/4 53/53/4 212/212/4 
f 133/133/4 66/66/4 212/212/4 
# 342 faces

